<svg xmlns="http://www.w3.org/2000/svg" xmlns:xlink="http://www.w3.org/1999/xlink" viewBox="0 0 1024 512">
  <g transform="matrix(0 1 1 0-.000023 0)">
    <path d="M544.3,503.3v-289.9h117v-79.4h-117v-73.9h-113.4v447.7C335.5,536.5,269.7,624.6,269.7,725c0,125.1,101.8,226.9,226.9,226.9s226.9-101.8,226.9-226.9c0-107.7-74.8-199.4-179.2-221.7Zm-47.7,426c-112.6,0-204.2-91.6-204.2-204.2c0-93,62.8-174.3,152.7-197.7l8.5-2.2v-442.4h68.1v73.9h117v34h-117v331.5l9.4,1.6C629.4,540.5,700.8,625.2,700.8,725c0,112.7-91.6,204.3-204.2,204.3Z" transform="translate(-240.6 6)" />
    <path d="M489.3,739.5c-37.5,0-68.1,30.5-68.1,68.1s30.5,68.1,68.1,68.1s68.1-30.5,68.1-68.1-30.5-68.1-68.1-68.1Zm0,113.4c-25,0-45.4-20.4-45.4-45.4s20.4-45.4,45.4-45.4s45.4,20.4,45.4,45.4c0,25.1-20.3,45.4-45.4,45.4Zm1.6-266.6c75.1,0,136.1,56,136.1,124.8c0,6.3,5.1,11.3,11.3,11.3c6.3,0,11.3-5.1,11.3-11.3c0-81.3-71.2-147.5-158.8-147.5-6.3,0-11.3,5.1-11.3,11.3.1,6.4,5.1,11.4,11.4,11.4Z" transform="translate(-240.6 6)" />
    <path d="M626,756.5c0,5.073172,2.706504,9.760975,7.1,12.297561s9.806505,2.536586,14.2,0s7.1-7.224389,7.1-12.297561-2.706504-9.760975-7.1-12.297561-9.806505-2.536586-14.2,0-7.1,7.224389-7.1,12.297561Z" transform="translate(-240.6 6)" />
  </g>
</svg>