<svg viewBox="0 0 132 30" fill="#393e46" width="400" xmlns="http://www.w3.org/2000/svg">
  <path transform="translate(-2.22-11.2)" d="M26.6,27.52c0,2.08-.08,4.12-.76,6.08-2.36,6.6-9.8,7.04-11.4,7.04-1.24,0-5.96-.2-9.16-3.4-2.72-2.72-2.8-6.2-2.8-9.72v-15.76h7.12v17.6c0,2.52.2,3.48,1.32,4.36c1.4,1.08,3.28,1.08,3.76,1.08c1.32,0,2.48-.16,3.48-1.04c1.32-1.16,1.36-2.84,1.36-4.44v-17.56h7.08v15.76ZM50.56,40h-6.16v-11.8c0-1.4-.04-2.44-.24-3-.28-.72-1.04-1.68-2.8-1.68-.28,0-1.32,0-2.08.64-1.04.8-1.16,2.08-1.16,4.56v11.28h-6.16v-20.84h6.24v1.8c.2-.2.44-.52.96-.92.76-.56,2.44-1.44,4.92-1.44.48,0,2.24.04,3.72.84c2.56,1.36,2.76,3.72,2.76,6.28v14.28ZM80.2,21.12c0,.92-.12,3.36-1.68,5.6-2.64,3.76-6.64,4.04-10.72,4.04h-4.72v9.24L56,40v-28.24h14c2.68,0,5.2.32,7.36,2.2.28.24.8.68,1.28,1.4.6.92,1.56,2.96,1.56,5.76Zm-7-.04c0-1.36-.4-2.04-.76-2.56-1.12-1.56-3.16-1.56-4.84-1.56h-4.52v8.56h4.28c1.24,0,1.76,0,2.4-.12c2.48-.4,3.48-1.92,3.44-4.32Zm39.24-1.96L106.2,40h-6.68L96.44,26.08L93.32,40h-6.76L80.84,19.12h6.48l2.92,14.6l3.16-14.6h6.56l2.88,14.72l3.24-14.72h6.36ZM133.96,40h-5.6l-.04-1.96c-.4.4-.72.72-1.2,1.08-1.8,1.32-3.6,1.44-4.44,1.44-1.4-.04-4.68-.44-6.96-3.68-1-1.44-1.96-3.44-1.96-7.2c0-1.2,0-6.64,3.96-9.56.72-.56,2.32-1.56,4.76-1.56c2.92,0,4.68,1.48,5.48,2.12v-8.92h6v28.24Zm-5.84-10.44c0-.52.12-3.04-1.04-4.8-.36-.56-1.4-1.8-3.28-1.56-1.16.16-2.08.8-2.72,1.76-.84,1.24-1.08,3.12-1.08,4.6c0,.4-.04,3.16,1.16,4.92.92,1.36,2.16,1.52,2.8,1.52.72,0,1.56-.28,2.16-.76c2.12-1.68,2-5.16,2-5.68Z" />
</svg>